# xmcd
# Copyright (C) 1995-1998 Ti Kan
#
# Track frame offsets:
#       150
#       16132
#       35352
#       49957
#       65635
#       79447
#       98632
#       116432
#       130155
#       144605
#       159707
#
# Disc length: 2566 seconds
#
# Revision: 2
# Processed by: cddbd v1.5PL3 Copyright (c) Steve Scherf et al.
# Submitted via: CD-Transfer v1.0
#
DISCID=940a040b
DTITLE=Reto Burrell - Roses Fade Blue
DYEAR=2004
DGENRE=
TTITLE0=Roses Fade Blue
TTITLE1=Guilty But Innocent
TTITLE2=Time Can Heal
TTITLE3=A Spell On Me
TTITLE4=Club Of Indecision
TTITLE5=Ordinary
TTITLE6=Bag
TTITLE7=Forever Is A Long Time
TTITLE8=Summertime
TTITLE9=Find
TTITLE10=Don't Want No More
EXTD=
EXTT0=
EXTT1=
EXTT2=
EXTT3=
EXTT4=
EXTT5=
EXTT6=
EXTT7=
EXTT8=
EXTT9=
EXTT10=
PLAYORDER=
